<svg width="27" height="23" viewBox="0 0 27 23" fill="none" xmlns="http://www.w3.org/2000/svg">
<path d="M16.2475 0.102488C16.1108 -0.0341949 15.8892 -0.034195 15.7525 0.102488L13.5251 2.32987C13.3884 2.46656 13.3884 2.68817 13.5251 2.82485C13.6618 2.96153 13.8834 2.96153 14.0201 2.82485L16 0.84495L17.9799 2.82485C18.1166 2.96153 18.3382 2.96153 18.4749 2.82485C18.6116 2.68817 18.6116 2.46656 18.4749 2.32987L16.2475 0.102488ZM16 19.35L16.35 19.35L16.35 0.349976L16 0.349976L15.65 0.349976L15.65 19.35L16 19.35Z" fill="black"/>
<circle cx="4" cy="6.34998" r="3.65" fill="#FF5F62" stroke="black" stroke-width="0.7"/>
<path d="M10.9667 6.94995H4V22.3499H26V9.14995H12.4333L10.9667 6.94995Z" fill="#E8FFCF" stroke="black" stroke-width="0.7" stroke-linejoin="bevel"/>
</svg>
