<svg width="82" height="45" viewBox="0 0 82 45" fill="none" xmlns="http://www.w3.org/2000/svg">
<path d="M4.40867 10.2717L6.90856 1.23492L10.9087 7.68873M17.4087 9.36879L24.9087 6.23492L22.583 13.2349M26.4086 17.7349C23.2419 13.0683 14.9086 4.73493 6.90856 8.73493C-3.09144 13.7349 -0.591384 28.7349 8.90862 30.7349C16.5086 32.3349 19.9163 29.4016 22.583 28.7349C21.5829 30.9016 24.0085 33.3349 26.4086 37.7349C29.4087 43.2349 60.4087 45.2349 70.4087 42.2349C80.4087 39.2349 85.4087 26.7349 76.4087 19.2349C67.4087 11.7349 48.9087 11.2349 40.9087 13.2349C34.5087 14.8349 28.5753 16.9016 26.4086 17.7349Z" stroke="black"/>
<path d="M12.4087 19.7349C14.5482 19.7349 16.4609 20.2239 17.8208 20.9888C19.1961 21.7625 19.9087 22.7532 19.9087 23.7349C19.9087 24.7166 19.1961 25.7073 17.8208 26.481C16.4609 27.2459 14.5482 27.7349 12.4087 27.7349C10.2692 27.7349 8.35646 27.2459 6.99658 26.481C5.62125 25.7073 4.90869 24.7166 4.90869 23.7349C4.90869 22.7532 5.62125 21.7625 6.99658 20.9888C8.35646 20.2239 10.2692 19.7349 12.4087 19.7349Z" fill="#E8FFCF"/>
<path d="M12.4087 19.7349C14.5482 19.7349 16.4609 20.2239 17.8208 20.9888C19.1961 21.7625 19.9087 22.7532 19.9087 23.7349C19.9087 24.7166 19.1961 25.7073 17.8208 26.481C16.4609 27.2459 14.5482 27.7349 12.4087 27.7349C10.2692 27.7349 8.35646 27.2459 6.99658 26.481C5.62125 25.7073 4.90869 24.7166 4.90869 23.7349C4.90869 22.7532 5.62125 21.7625 6.99658 20.9888C8.35646 20.2239 10.2692 19.7349 12.4087 19.7349Z" fill="#E8FFCF"/>
<path d="M12.4087 19.7349C14.5482 19.7349 16.4609 20.2239 17.8208 20.9888C19.1961 21.7625 19.9087 22.7532 19.9087 23.7349C19.9087 24.7166 19.1961 25.7073 17.8208 26.481C16.4609 27.2459 14.5482 27.7349 12.4087 27.7349C10.2692 27.7349 8.35646 27.2459 6.99658 26.481C5.62125 25.7073 4.90869 24.7166 4.90869 23.7349C4.90869 22.7532 5.62125 21.7625 6.99658 20.9888C8.35646 20.2239 10.2692 19.7349 12.4087 19.7349Z" fill="#E8FFCF"/>
<path d="M12.4087 19.7349C14.5482 19.7349 16.4609 20.2239 17.8208 20.9888C19.1961 21.7625 19.9087 22.7532 19.9087 23.7349C19.9087 24.7166 19.1961 25.7073 17.8208 26.481C16.4609 27.2459 14.5482 27.7349 12.4087 27.7349C10.2692 27.7349 8.35646 27.2459 6.99658 26.481C5.62125 25.7073 4.90869 24.7166 4.90869 23.7349C4.90869 22.7532 5.62125 21.7625 6.99658 20.9888C8.35646 20.2239 10.2692 19.7349 12.4087 19.7349Z" stroke="black"/>
<path d="M12.4087 19.7349C13.1521 19.7349 13.8024 19.9369 14.2524 20.2369C14.7059 20.5392 14.9087 20.9018 14.9087 21.2349C14.9087 21.568 14.7059 21.9306 14.2524 22.233C13.8024 22.5329 13.1521 22.7349 12.4087 22.7349C11.6653 22.7349 11.0149 22.5329 10.5649 22.233C10.1114 21.9306 9.90869 21.568 9.90869 21.2349C9.90869 20.9018 10.1114 20.5392 10.5649 20.2369C11.0149 19.9369 11.6653 19.7349 12.4087 19.7349Z" fill="#E8FFCF"/>
<path d="M12.4087 19.7349C13.1521 19.7349 13.8024 19.9369 14.2524 20.2369C14.7059 20.5392 14.9087 20.9018 14.9087 21.2349C14.9087 21.568 14.7059 21.9306 14.2524 22.233C13.8024 22.5329 13.1521 22.7349 12.4087 22.7349C11.6653 22.7349 11.0149 22.5329 10.5649 22.233C10.1114 21.9306 9.90869 21.568 9.90869 21.2349C9.90869 20.9018 10.1114 20.5392 10.5649 20.2369C11.0149 19.9369 11.6653 19.7349 12.4087 19.7349Z" fill="#E8FFCF"/>
<path d="M12.4087 19.7349C13.1521 19.7349 13.8024 19.9369 14.2524 20.2369C14.7059 20.5392 14.9087 20.9018 14.9087 21.2349C14.9087 21.568 14.7059 21.9306 14.2524 22.233C13.8024 22.5329 13.1521 22.7349 12.4087 22.7349C11.6653 22.7349 11.0149 22.5329 10.5649 22.233C10.1114 21.9306 9.90869 21.568 9.90869 21.2349C9.90869 20.9018 10.1114 20.5392 10.5649 20.2369C11.0149 19.9369 11.6653 19.7349 12.4087 19.7349Z" fill="#E8FFCF"/>
<path d="M12.4087 19.7349C13.1521 19.7349 13.8024 19.9369 14.2524 20.2369C14.7059 20.5392 14.9087 20.9018 14.9087 21.2349C14.9087 21.568 14.7059 21.9306 14.2524 22.233C13.8024 22.5329 13.1521 22.7349 12.4087 22.7349C11.6653 22.7349 11.0149 22.5329 10.5649 22.233C10.1114 21.9306 9.90869 21.568 9.90869 21.2349C9.90869 20.9018 10.1114 20.5392 10.5649 20.2369C11.0149 19.9369 11.6653 19.7349 12.4087 19.7349Z" stroke="black"/>
<circle cx="5.40869" cy="16.2349" r="1.5" fill="#E8FFCF"/>
<circle cx="5.40869" cy="16.2349" r="1.5" fill="#E8FFCF"/>
<circle cx="5.40869" cy="16.2349" r="1.5" fill="#E8FFCF"/>
<circle cx="5.40869" cy="16.2349" r="1.5" stroke="black"/>
<circle cx="16.4087" cy="17.2349" r="1.5" fill="#E8FFCF"/>
<circle cx="16.4087" cy="17.2349" r="1.5" fill="#E8FFCF"/>
<circle cx="16.4087" cy="17.2349" r="1.5" fill="#E8FFCF"/>
<circle cx="16.4087" cy="17.2349" r="1.5" stroke="black"/>
</svg>
