<svg width="40" height="83" viewBox="0 0 40 83" fill="none" xmlns="http://www.w3.org/2000/svg">
<mask id="path-1-inside-1_4_539" fill="white">
<path d="M28 50.9971C33.3556 53.8588 37 59.5035 37 66C37 75.3888 29.3888 83 20 83C10.6112 83 3 75.3888 3 66C3 59.9163 6.19572 54.5791 11 51.5752V37H28V50.9971Z"/>
</mask>
<path d="M28 50.9971C33.3556 53.8588 37 59.5035 37 66C37 75.3888 29.3888 83 20 83C10.6112 83 3 75.3888 3 66C3 59.9163 6.19572 54.5791 11 51.5752V37H28V50.9971Z" fill="#E8FFCF"/>
<path d="M28 50.9971H27V51.5965L27.5287 51.8791L28 50.9971ZM11 51.5752L11.5301 52.4231L12 52.1293V51.5752H11ZM11 37V36H10V37H11ZM28 37H29V36H28V37ZM28 50.9971L27.5287 51.8791C32.5719 54.5738 36 59.8871 36 66H37H38C38 59.1199 34.1393 53.1437 28.4713 50.1151L28 50.9971ZM37 66H36C36 74.8366 28.8366 82 20 82V83V84C29.9411 84 38 75.9411 38 66H37ZM20 83V82C11.1634 82 4 74.8366 4 66H3H2C2 75.9411 10.0589 84 20 84V83ZM3 66H4C4 60.2753 7.00587 55.2519 11.5301 52.4231L11 51.5752L10.4699 50.7273C5.38557 53.9062 2 59.5573 2 66H3ZM11 51.5752H12V37H11H10V51.5752H11ZM11 37V38H28V37V36H11V37ZM28 37H27V50.9971H28H29V37H28Z" fill="black" mask="url(#path-1-inside-1_4_539)"/>
<path d="M16.5 37.5C17.5 32.1667 17 19.7 7 12.5M23 37.5C22.1667 32.1667 22.3 21 29.5 19M23 8C21.6667 13.8333 19.1 27.9 19.5 37.5" stroke="black"/>
<circle cx="34.5" cy="17.5" r="5" fill="#E8FFCF" stroke="black"/>
<circle cx="23.5" cy="6.5" r="6" fill="#E8FFCF" stroke="black"/>
<circle cx="8" cy="14" r="7.5" fill="#E8FFCF" stroke="black"/>
</svg>
